# xmcd CD database file
#
# Track frame offsets:
#	150
#	18306
#	42745
#	61277
#	82292
#	103823
#	120634
#	138237
#	157428
#	179306
#	195490
#	215922
#	245554
#
# Disc length: 3450 seconds
#
# Revision: 12
# Processed by: cddbd v1.5.2PL0 Copyright (c) Steve Scherf et al.
# Submitted via: CDex 1.51
#
DISCID=c90d780d
DTITLE=Destiny's Child - Destiny Fulfilled
DYEAR=2004
DGENRE=R&B/Soul
TTITLE0=Destiny's Child - Lose My Breath
TTITLE1=Destiny's Child feat. T.I. and Lil Wayne - Soldier
TTITLE2=Destiny's Child - Cater 2 U
TTITLE3=Destiny's Child - T-Shirt
TTITLE4=Destiny's Child - Is She The Reason
TTITLE5=Destiny's Child - Girl
TTITLE6=Destiny's Child - Bad Habit
TTITLE7=Destiny's Child - If
TTITLE8=Destiny's Child - Free
TTITLE9=Destiny's Child - Through With Love
TTITLE10=Destiny's Child - Love
TTITLE11=Destiny's Child - Game Over
TTITLE12=Data Track
EXTD=YEAR: 2004
EXTT0=
EXTT1=
EXTT2=
EXTT3=
EXTT4=
EXTT5=
EXTT6=
EXTT7=
EXTT8=
EXTT9=
EXTT10=
EXTT11=
EXTT12=
PLAYORDER=
